<svg width="52" height="18" viewBox="0 0 52 18" fill="none" xmlns="http://www.w3.org/2000/svg">
<path d="M51 8.75L51.0869 9.24239V8.25761L51 8.75ZM51.0869 8.25761C49.7433 8.02051 47.6988 7.26419 46.001 5.89796C44.3131 4.53974 43 2.6088 43 0L42 0C42 2.9912 43.5202 5.18526 45.374 6.67704C47.2179 8.16081 49.4233 8.97949 50.9131 9.24239L51.0869 8.25761ZM50.9131 8.25761C49.4233 8.52051 47.2179 9.33919 45.374 10.823C43.5202 12.3147 42 14.5088 42 17.5H43C43 14.8912 44.3131 12.9603 46.001 11.602C47.6988 10.2358 49.7433 9.47949 51.0869 9.24239L50.9131 8.25761ZM51 8.25L-1.86995e-08 8.25L1.86995e-08 9.25L51 9.25V8.25Z" fill="white"/>
</svg>
