<?xml version="1.0" encoding="utf-8"?>
<!-- Generator: Adobe Illustrator 26.0.2, SVG Export Plug-In . SVG Version: 6.00 Build 0)  -->
<svg version="1.1" id="Layer_1" xmlns="http://www.w3.org/2000/svg" xmlns:xlink="http://www.w3.org/1999/xlink" x="0px" y="0px"
	 viewBox="0 0 212 212" style="enable-background:new 0 0 212 212;" xml:space="preserve">
<path d="M64.7,98.3v-9.8h6.5v1.9h-4.3v2.3h3.7v1.9h-3.7v3.8H64.7z"/>
<path d="M75.8,98.3v-5.7h-3v-1.7h5.2v7.4H75.8z M76.9,89.7c-0.4,0-0.8-0.1-1.1-0.4c-0.3-0.2-0.4-0.6-0.4-1c0-0.4,0.1-0.7,0.4-1
	c0.3-0.3,0.6-0.4,1.1-0.4c0.4,0,0.8,0.1,1.1,0.4c0.3,0.2,0.4,0.6,0.4,1c0,0.4-0.1,0.7-0.4,1C77.6,89.6,77.3,89.7,76.9,89.7z"/>
<path d="M82,98.3v-7.4h1.8l0.2,1.6h0c0.4-0.6,0.8-1.1,1.3-1.3c0.5-0.3,1.1-0.4,1.7-0.4c0.3,0,0.6,0,0.8,0.1c0.2,0.1,0.4,0.1,0.6,0.2
	L88,92.8c-0.2-0.1-0.4-0.1-0.6-0.2c-0.2,0-0.4-0.1-0.7-0.1c-0.5,0-0.9,0.1-1.4,0.4c-0.4,0.3-0.8,0.7-1.1,1.4v3.9H82z"/>
<path d="M93.2,98.5c-0.7,0-1.3-0.1-2-0.3c-0.6-0.2-1.2-0.5-1.7-0.8l0.9-1.4c0.5,0.3,0.9,0.5,1.4,0.7c0.5,0.2,1,0.2,1.6,0.2
	c0.4,0,0.7-0.1,0.9-0.2c0.2-0.1,0.3-0.3,0.3-0.5c0-0.1,0-0.2-0.1-0.3c-0.1-0.1-0.1-0.2-0.3-0.2c-0.1-0.1-0.3-0.1-0.6-0.2
	c-0.2-0.1-0.5-0.1-0.9-0.2c-1-0.2-1.7-0.5-2.2-0.9C90.2,94.1,90,93.6,90,93c0-0.3,0.1-0.7,0.2-0.9c0.2-0.3,0.4-0.5,0.7-0.7
	c0.3-0.2,0.7-0.4,1.1-0.5c0.4-0.1,0.9-0.2,1.4-0.2c0.7,0,1.3,0.1,1.8,0.3c0.6,0.2,1,0.4,1.4,0.7l-1,1.3c-0.4-0.2-0.8-0.4-1.2-0.5
	c-0.4-0.1-0.8-0.2-1.2-0.2c-0.3,0-0.6,0.1-0.8,0.2c-0.2,0.1-0.3,0.2-0.3,0.4c0,0.2,0.1,0.4,0.4,0.4s0.7,0.2,1.3,0.3
	c0.6,0.1,1,0.3,1.4,0.4c0.4,0.2,0.7,0.3,0.9,0.5c0.2,0.2,0.4,0.4,0.5,0.6c0.1,0.2,0.1,0.5,0.1,0.8c0,0.3-0.1,0.7-0.2,0.9
	c-0.2,0.3-0.4,0.5-0.7,0.8c-0.3,0.2-0.7,0.4-1.1,0.5C94.3,98.4,93.8,98.5,93.2,98.5z"/>
<path d="M103.1,98.5c-0.6,0-1.1-0.1-1.5-0.2c-0.4-0.2-0.7-0.4-1-0.7c-0.2-0.3-0.4-0.6-0.5-1c-0.1-0.4-0.2-0.8-0.2-1.3v-2.6H98V91
	l2-0.1l0.3-2.3h1.8v2.3h3.2v1.7h-3.2v2.6c0,0.6,0.1,1,0.4,1.2c0.2,0.2,0.7,0.3,1.2,0.3c0.3,0,0.5,0,0.8-0.1c0.2-0.1,0.5-0.1,0.7-0.2
	l0.4,1.6c-0.3,0.1-0.7,0.2-1.1,0.3C104.1,98.5,103.6,98.5,103.1,98.5z"/>
<path d="M118.2,98.5c-0.5,0-0.9-0.1-1.3-0.3c-0.4-0.2-0.7-0.4-1-0.8c-0.3-0.3-0.5-0.8-0.6-1.2c-0.2-0.5-0.2-1-0.2-1.6
	c0-0.6,0.1-1.2,0.3-1.6c0.2-0.5,0.4-0.9,0.7-1.2c0.3-0.3,0.6-0.6,1-0.8s0.8-0.3,1.2-0.3c0.4,0,0.8,0.1,1.1,0.2
	c0.3,0.1,0.6,0.3,0.8,0.6h0.1l-0.1-1.2v-2.5h2.2v10.5h-1.8l-0.2-0.8h0c-0.3,0.3-0.6,0.5-1,0.7S118.6,98.5,118.2,98.5z M118.8,96.7
	c0.2,0,0.5-0.1,0.7-0.2c0.2-0.1,0.4-0.3,0.6-0.5v-3c-0.2-0.2-0.4-0.3-0.6-0.4c-0.2-0.1-0.4-0.1-0.6-0.1c-0.4,0-0.8,0.2-1.1,0.5
	c-0.3,0.3-0.4,0.9-0.4,1.6c0,0.7,0.1,1.3,0.4,1.6C118,96.5,118.3,96.7,118.8,96.7z"/>
<path d="M124.7,98.3v-7.4h1.8l0.2,1.6h0c0.4-0.6,0.8-1.1,1.3-1.3c0.5-0.3,1.1-0.4,1.7-0.4c0.3,0,0.6,0,0.8,0.1
	c0.2,0.1,0.4,0.1,0.6,0.2l-0.4,1.8c-0.2-0.1-0.4-0.1-0.6-0.2c-0.2,0-0.4-0.1-0.7-0.1c-0.5,0-0.9,0.1-1.4,0.4
	c-0.4,0.3-0.8,0.7-1.1,1.4v3.9H124.7z"/>
<path d="M136,98.5c-0.5,0-1-0.1-1.4-0.3c-0.4-0.2-0.9-0.4-1.2-0.8c-0.4-0.3-0.6-0.7-0.8-1.2c-0.2-0.5-0.3-1-0.3-1.7
	c0-0.6,0.1-1.2,0.3-1.7c0.2-0.5,0.5-0.9,0.8-1.2c0.4-0.3,0.8-0.6,1.2-0.8c0.5-0.2,0.9-0.3,1.4-0.3s1,0.1,1.4,0.3
	c0.5,0.2,0.9,0.4,1.2,0.8c0.4,0.3,0.6,0.7,0.9,1.2c0.2,0.5,0.3,1,0.3,1.7c0,0.6-0.1,1.2-0.3,1.7c-0.2,0.5-0.5,0.9-0.9,1.2
	c-0.4,0.3-0.8,0.6-1.2,0.8C136.9,98.4,136.5,98.5,136,98.5z M136,96.7c0.5,0,0.9-0.2,1.1-0.6c0.3-0.4,0.4-0.9,0.4-1.5
	c0-0.7-0.1-1.2-0.4-1.5c-0.2-0.4-0.6-0.6-1.1-0.6s-0.9,0.2-1.2,0.6c-0.2,0.4-0.4,0.9-0.4,1.5c0,0.6,0.1,1.2,0.4,1.5
	C135.1,96.5,135.5,96.7,136,96.7z"/>
<path d="M141.1,101.1V90.9h1.8l0.2,0.8h0c0.3-0.3,0.6-0.5,1-0.7c0.4-0.2,0.8-0.3,1.2-0.3c0.5,0,0.9,0.1,1.2,0.3s0.7,0.4,0.9,0.8
	c0.3,0.3,0.5,0.7,0.6,1.2c0.1,0.5,0.2,1,0.2,1.5c0,0.6-0.1,1.2-0.3,1.7c-0.2,0.5-0.4,0.9-0.7,1.3c-0.3,0.3-0.6,0.6-1,0.8
	c-0.4,0.2-0.8,0.3-1.2,0.3c-0.7,0-1.3-0.3-1.8-0.8h-0.1l0.1,1.2v2.2H141.1z M144.6,96.7c0.4,0,0.8-0.2,1.1-0.5
	c0.3-0.3,0.4-0.9,0.4-1.7c0-1.3-0.5-2-1.4-2c-0.5,0-0.9,0.2-1.4,0.7v3c0.2,0.2,0.4,0.3,0.6,0.4C144.2,96.7,144.4,96.7,144.6,96.7z"
	/>
<path d="M63.5,121.5c-0.8,0-1.4-0.1-2-0.4c-0.6-0.3-1.1-0.6-1.5-1.1l0.5-0.5c0.4,0.4,0.8,0.7,1.3,1s1.1,0.4,1.7,0.4
	c0.8,0,1.4-0.2,1.9-0.5c0.5-0.4,0.7-0.8,0.7-1.4c0-0.3-0.1-0.6-0.2-0.8c-0.1-0.2-0.2-0.4-0.4-0.6c-0.2-0.2-0.4-0.3-0.6-0.4
	c-0.2-0.1-0.5-0.2-0.7-0.3l-1.5-0.7c-0.2-0.1-0.5-0.2-0.7-0.3c-0.2-0.1-0.5-0.3-0.7-0.5c-0.2-0.2-0.4-0.4-0.5-0.7
	c-0.1-0.3-0.2-0.6-0.2-1c0-0.4,0.1-0.7,0.2-1c0.2-0.3,0.4-0.6,0.6-0.8c0.3-0.2,0.6-0.4,1-0.5c0.4-0.1,0.8-0.2,1.2-0.2
	c0.6,0,1.2,0.1,1.7,0.4c0.5,0.2,0.9,0.5,1.2,0.8l-0.4,0.4c-0.3-0.3-0.7-0.5-1.1-0.7c-0.4-0.2-0.9-0.3-1.4-0.3
	c-0.7,0-1.2,0.2-1.7,0.5c-0.4,0.3-0.6,0.8-0.6,1.3c0,0.3,0.1,0.5,0.2,0.7c0.1,0.2,0.3,0.4,0.5,0.5c0.2,0.1,0.4,0.3,0.6,0.4
	c0.2,0.1,0.4,0.2,0.6,0.3l1.5,0.7c0.3,0.1,0.6,0.3,0.9,0.4c0.3,0.2,0.5,0.3,0.7,0.5c0.2,0.2,0.4,0.4,0.5,0.7c0.1,0.3,0.2,0.6,0.2,1
	c0,0.4-0.1,0.7-0.2,1.1c-0.2,0.3-0.4,0.6-0.7,0.8c-0.3,0.2-0.6,0.4-1,0.6C64.4,121.4,64,121.5,63.5,121.5z"/>
<path d="M69,124.6v-10.5h0.6l0.1,1h0c0.4-0.4,0.8-0.6,1.3-0.9c0.5-0.2,1-0.3,1.4-0.3c1,0,1.8,0.3,2.3,1c0.5,0.7,0.8,1.6,0.8,2.7
	c0,0.6-0.1,1.2-0.3,1.6c-0.2,0.5-0.4,0.9-0.7,1.2c-0.3,0.3-0.7,0.6-1.1,0.8c-0.4,0.2-0.8,0.3-1.3,0.3c-0.3,0-0.7-0.1-1.2-0.3
	c-0.4-0.2-0.8-0.4-1.2-0.8h0l0,1.5v2.6H69z M72,120.9c0.4,0,0.8-0.1,1.1-0.2c0.3-0.2,0.6-0.4,0.9-0.7s0.4-0.6,0.6-1
	c0.1-0.4,0.2-0.9,0.2-1.3c0-0.4,0-0.9-0.1-1.2c-0.1-0.4-0.2-0.7-0.4-1c-0.2-0.3-0.4-0.5-0.8-0.6c-0.3-0.2-0.7-0.2-1.1-0.2
	c-0.4,0-0.8,0.1-1.2,0.3c-0.4,0.2-0.9,0.5-1.3,1v4c0.4,0.4,0.8,0.7,1.3,0.8C71.3,120.8,71.7,120.9,72,120.9z"/>
<path d="M78.4,121.3v-7.2H79l0.1,1.8h0c0.4-0.6,0.9-1,1.4-1.4c0.6-0.4,1.2-0.6,1.9-0.6c0.2,0,0.5,0,0.7,0.1c0.2,0,0.5,0.1,0.7,0.2
	l-0.2,0.6c-0.3-0.1-0.5-0.2-0.7-0.2c-0.2,0-0.4-0.1-0.7-0.1c-0.6,0-1.2,0.2-1.7,0.5c-0.5,0.3-1.1,0.9-1.6,1.7v4.5H78.4z"/>
<path d="M89.6,121.3v-6.6h-3.6v-0.6h4.3v7.2H89.6z M89.7,112.4c-0.2,0-0.4-0.1-0.5-0.2c-0.1-0.1-0.2-0.3-0.2-0.5
	c0-0.2,0.1-0.4,0.2-0.5c0.1-0.1,0.3-0.2,0.5-0.2c0.2,0,0.4,0.1,0.5,0.2c0.1,0.1,0.2,0.3,0.2,0.5c0,0.2-0.1,0.4-0.2,0.5
	C90.1,112.3,89.9,112.4,89.7,112.4z"/>
<path d="M94.6,121.3v-7.2h0.6l0.1,1.4h0.1c0.4-0.4,0.9-0.8,1.3-1.1c0.5-0.3,1-0.4,1.5-0.4c1.7,0,2.6,1,2.6,2.9v4.5h-0.7v-4.4
	c0-0.8-0.2-1.4-0.5-1.8c-0.3-0.4-0.8-0.6-1.5-0.6c-0.3,0-0.5,0-0.7,0.1c-0.2,0.1-0.4,0.2-0.7,0.3c-0.2,0.1-0.4,0.3-0.7,0.5
	c-0.2,0.2-0.5,0.4-0.7,0.7v5.2H94.6z"/>
<path d="M106.2,124.8c-1.1,0-2-0.2-2.5-0.6c-0.6-0.4-0.8-0.9-0.8-1.5c0-0.3,0.1-0.6,0.3-0.9s0.5-0.6,0.9-0.8v-0.1
	c-0.2-0.1-0.3-0.2-0.5-0.4c-0.2-0.2-0.2-0.4-0.2-0.7c0-0.2,0.1-0.5,0.2-0.7c0.2-0.2,0.4-0.5,0.7-0.7v-0.1c-0.2-0.2-0.4-0.4-0.6-0.7
	c-0.2-0.3-0.3-0.7-0.3-1.1c0-0.4,0.1-0.7,0.2-1c0.1-0.3,0.3-0.6,0.6-0.8c0.2-0.2,0.5-0.4,0.9-0.5c0.3-0.1,0.7-0.2,1-0.2
	c0.4,0,0.7,0.1,1,0.2h3v0.6h-2.2c0.2,0.2,0.4,0.5,0.6,0.8c0.2,0.3,0.3,0.7,0.3,1c0,0.4-0.1,0.7-0.2,1c-0.1,0.3-0.3,0.6-0.6,0.8
	c-0.2,0.2-0.5,0.4-0.8,0.5c-0.3,0.1-0.7,0.2-1,0.2c-0.2,0-0.4,0-0.7-0.1c-0.2-0.1-0.5-0.1-0.7-0.3c-0.2,0.1-0.4,0.3-0.5,0.5
	c-0.1,0.2-0.2,0.4-0.2,0.6c0,0.3,0.2,0.6,0.5,0.8c0.3,0.2,0.7,0.2,1.2,0.2h1.8c0.9,0,1.6,0.1,2,0.4c0.4,0.2,0.6,0.7,0.6,1.2
	c0,0.3-0.1,0.6-0.3,0.9c-0.2,0.3-0.4,0.6-0.8,0.8c-0.3,0.2-0.7,0.4-1.2,0.6S106.8,124.8,106.2,124.8z M106,118.5
	c0.3,0,0.5,0,0.8-0.1c0.2-0.1,0.5-0.2,0.6-0.4c0.2-0.2,0.3-0.4,0.4-0.6c0.1-0.2,0.2-0.5,0.2-0.8c0-0.3-0.1-0.6-0.2-0.8
	c-0.1-0.2-0.2-0.5-0.4-0.6s-0.4-0.3-0.6-0.4c-0.2-0.1-0.5-0.2-0.8-0.2c-0.3,0-0.5,0.1-0.8,0.2c-0.2,0.1-0.4,0.2-0.6,0.4
	s-0.3,0.4-0.4,0.6c-0.1,0.2-0.2,0.5-0.2,0.8c0,0.3,0,0.6,0.2,0.8c0.1,0.2,0.3,0.5,0.4,0.6c0.2,0.2,0.4,0.3,0.6,0.4
	C105.5,118.5,105.7,118.5,106,118.5z M106.2,124.2c0.5,0,0.9-0.1,1.3-0.2c0.4-0.1,0.7-0.2,1-0.4c0.3-0.2,0.5-0.4,0.6-0.6
	c0.2-0.2,0.2-0.4,0.2-0.7c0-0.4-0.2-0.7-0.5-0.8c-0.3-0.2-0.8-0.2-1.4-0.2h-1.7c-0.2,0-0.4,0-0.6,0c-0.2,0-0.4-0.1-0.5-0.1
	c-0.4,0.2-0.7,0.5-0.9,0.7c-0.2,0.3-0.3,0.5-0.3,0.8c0,0.4,0.2,0.8,0.7,1.1C104.6,124.1,105.2,124.2,106.2,124.2z"/>
<path d="M119.9,121.3v-0.4c0.9-0.8,1.7-1.5,2.3-2.1c0.7-0.6,1.2-1.2,1.7-1.7c0.4-0.5,0.8-1,1-1.5c0.2-0.5,0.3-0.9,0.3-1.3
	c0-0.3,0-0.6-0.1-0.8c-0.1-0.3-0.2-0.5-0.4-0.7c-0.2-0.2-0.4-0.3-0.7-0.5s-0.7-0.2-1.1-0.2c-0.5,0-0.9,0.1-1.4,0.4
	c-0.4,0.2-0.8,0.5-1.1,0.9l-0.4-0.4c0.4-0.4,0.8-0.7,1.3-1c0.5-0.3,1-0.4,1.7-0.4c0.9,0,1.7,0.2,2.2,0.7c0.5,0.5,0.8,1.1,0.8,2
	c0,0.5-0.1,1-0.3,1.4c-0.2,0.5-0.6,1-1,1.5c-0.4,0.5-0.9,1.1-1.5,1.7c-0.6,0.6-1.3,1.2-2.1,1.9c0.3,0,0.6,0,0.9,0c0.3,0,0.6,0,0.9,0
	h3.7v0.6H119.9z"/>
<path d="M131.7,121.5c-1.1,0-1.9-0.4-2.4-1.3c-0.6-0.9-0.9-2.1-0.9-3.7c0-1.6,0.3-2.8,0.9-3.7c0.6-0.8,1.4-1.3,2.4-1.3
	s1.9,0.4,2.4,1.3c0.6,0.8,0.9,2.1,0.9,3.7c0,1.6-0.3,2.8-0.9,3.7C133.6,121.1,132.8,121.5,131.7,121.5z M131.7,120.9
	c0.8,0,1.4-0.4,1.9-1.1c0.5-0.8,0.7-1.9,0.7-3.3s-0.2-2.6-0.7-3.3c-0.5-0.7-1.1-1.1-1.9-1.1s-1.4,0.4-1.9,1.1
	c-0.5,0.7-0.7,1.8-0.7,3.3s0.2,2.6,0.7,3.3C130.3,120.6,130.9,120.9,131.7,120.9z M131.7,117.3c-0.2,0-0.4-0.1-0.6-0.2
	c-0.2-0.2-0.3-0.4-0.3-0.7s0.1-0.5,0.3-0.7c0.2-0.2,0.4-0.2,0.6-0.2c0.2,0,0.4,0.1,0.6,0.2c0.2,0.2,0.3,0.4,0.3,0.7
	s-0.1,0.5-0.3,0.7C132.1,117.2,131.9,117.3,131.7,117.3z"/>
<path d="M137,121.3v-0.4c0.9-0.8,1.6-1.5,2.3-2.1c0.7-0.6,1.2-1.2,1.7-1.7c0.4-0.5,0.8-1,1-1.5c0.2-0.5,0.3-0.9,0.3-1.3
	c0-0.3,0-0.6-0.1-0.8c-0.1-0.3-0.2-0.5-0.4-0.7c-0.2-0.2-0.4-0.3-0.7-0.5c-0.3-0.1-0.7-0.2-1.1-0.2c-0.5,0-0.9,0.1-1.4,0.4
	c-0.4,0.2-0.8,0.5-1.1,0.9l-0.4-0.4c0.4-0.4,0.8-0.7,1.3-1c0.5-0.3,1-0.4,1.7-0.4c0.9,0,1.7,0.2,2.2,0.7c0.5,0.5,0.8,1.1,0.8,2
	c0,0.5-0.1,1-0.3,1.4c-0.2,0.5-0.6,1-1,1.5c-0.4,0.5-0.9,1.1-1.5,1.7c-0.6,0.6-1.3,1.2-2.1,1.9c0.3,0,0.6,0,0.9,0c0.3,0,0.6,0,0.9,0
	h3.7v0.6H137z"/>
<path d="M145.5,121.3v-0.4c0.9-0.8,1.6-1.5,2.3-2.1c0.7-0.6,1.2-1.2,1.6-1.7c0.4-0.5,0.8-1,1-1.5c0.2-0.5,0.3-0.9,0.3-1.3
	c0-0.3,0-0.6-0.1-0.8c-0.1-0.3-0.2-0.5-0.4-0.7c-0.2-0.2-0.4-0.3-0.7-0.5s-0.7-0.2-1.1-0.2c-0.5,0-0.9,0.1-1.4,0.4
	c-0.4,0.2-0.8,0.5-1.1,0.9l-0.4-0.4c0.4-0.4,0.8-0.7,1.3-1c0.5-0.3,1-0.4,1.7-0.4c0.9,0,1.7,0.2,2.2,0.7c0.5,0.5,0.8,1.1,0.8,2
	c0,0.5-0.1,1-0.3,1.4c-0.2,0.5-0.6,1-1,1.5c-0.4,0.5-0.9,1.1-1.5,1.7c-0.6,0.6-1.3,1.2-2.1,1.9c0.3,0,0.6,0,0.9,0c0.3,0,0.6,0,0.9,0
	h3.7v0.6H145.5z"/>
</svg>
