<svg xmlns="http://www.w3.org/2000/svg" viewBox="0 0 622.26 622.25"><defs><style>.cls-1{fill:#686868;}</style></defs><g id="Layer_2" data-name="Layer 2"><g id="Layer_1-2" data-name="Layer 1"><path class="cls-1" d="M127.13,85.15c-7-9.53-5.31-21.22,3.14-27.39,4.41-3.23,8.32-4.41,11.16-4.47l5.69,7.79-.92.67c-3.56-4.78-9.37-6.31-15.32-2-6.65,4.87-8.08,13.83-2.1,22,5.6,7.66,14.74,9.43,21.31,4.63A11.73,11.73,0,0,0,154.26,72l.92-.68c2.92,5.65,3.25,14-3.88,19.22C143.6,96.21,133.56,94,127.13,85.15Z"/><path class="cls-1" d="M156.86,62.75c-5.23-9.75-1.51-21.28,7.23-26s20.45-1.44,25.68,8.3,1.61,21.23-7.28,26S162.09,72.49,156.86,62.75Zm28.85-15.49c-5-9.26-13.56-12.53-20.68-8.71s-9.06,12.8-4.11,22,13.5,12.43,20.57,8.64S190.63,56.43,185.71,47.26Z"/><path class="cls-1" d="M247.11,44.47,232,49.6l-.33-1,2.21-.75c1.85-.62,3.38-1.83,2.27-5.12-.25-.72-.52-1.37-.8-2L224.06,16.18l-.51,36.29-2,.68-22.3-28.09,6,25.78a20,20,0,0,0,.58,2.21c1.1,3.23,3,3.34,5.59,2.45l1.28-.43.33,1-13.45,4.57-.33-1,.82-.27c3-1,4-2.73,3.09-6.78l-5.35-23.83c-.17-.68-.4-1.52-.52-1.88-1-2.82-2.61-3.12-4.82-2.37L191,25l-.33-1,9.75-3.31,21.14,26.54.52-33.9,9.8-3.33.33,1-1.28.43c-2.41.82-3.57,2.13-2.7,4.7a26,26,0,0,0,1.11,2.6l10,21.51c1.92,4.15,3.91,4.45,6.32,3.63l1.13-.38Z"/><path class="cls-1" d="M251.58,43.53c3.08-.62,3.27-2.43,2.84-4.61L249,11.82c-.44-2.18-1.29-3.67-4.37-3.05l-1.81.36-.2-1,14.72-2.94.21,1-1.81.36c-3,.6-3.3,2.31-2.86,4.49l5.42,27.11c.43,2.18,1.36,3.76,4.39,3.16l1.8-.37.2,1L250,44.9l-.2-1Z"/><path class="cls-1" d="M305.63,1,304,1.16c-3.46.29-4.1,2.41-3.88,5.05L302.8,38.3l-1.62.14-27.11-31,2.25,27.12c.23,2.75,1.4,4.39,5.18,4.08l1.62-.13.09,1-14.64,1.22-.09-1,1.73-.14c3.14-.26,4.06-2.19,3.85-4.78L271.8,7.59c-.18-2.16-1.23-3.65-4.36-3.39l-1.89.15-.09-1,9.67-.8L299.91,31,297.85,6.3c-.23-2.81-1.46-4.51-5.08-4.21l-1.4.12-.09-1L305.54,0Z"/><path class="cls-1" d="M311.65,19.39C312.43,6.73,323,.16,333.54.81c5.84.36,9.24,1.54,11.72,2.78l-.64,10.33-1.19-.07c.17-4.5-1.74-10.53-10.67-11.08-8.7-.54-16,4.93-16.63,15.32-.69,11.3,6.18,18.79,15.1,19.33,4.87.3,7.52-1.38,7.73-4.73l.29-4.76c.16-2.55-.74-3.85-4.31-4.07l-2.81-.17.08-1.25,15.09.93-.08,1.25c-3.3-.21-4.09.34-4.25,3l-.45,7.2L346,35l-.05.81c-3.22,2-8.18,4.12-15.7,3.65C319,38.79,311,30.26,311.65,19.39Z"/><path class="cls-1" d="M364.83,41,366,31.16l1.22.29c-.36,6.82,3,11.59,8.39,12.87,4.69,1.13,8.47-.92,9.47-5.09.93-3.9-1.39-6.29-4.83-8.67l-3.78-2.64c-4.43-3.12-7-6.58-5.78-11.69,1.43-6,7.94-9,15-7.27a22,22,0,0,1,8.53,3.93l-2.11,8.81-1.21-.29c1.41-5.91-1.82-9.63-6.46-10.74-5.48-1.32-9.27,1.23-10.16,5-.85,3.53.92,5.91,4.26,8.27l3.72,2.62c5,3.53,7.78,6.82,6.52,12.09-1.42,6-7.77,9.17-14.41,7.58A19.46,19.46,0,0,1,364.83,41Z"/><path class="cls-1" d="M397.57,31.77c3.94-10.33,15.08-15.07,24.35-11.54s14.48,14.51,10.54,24.84-15,15.11-24.4,11.52C398.79,53.06,393.63,42.1,397.57,31.77Zm30.59,11.66c3.74-9.83.59-18.45-7-21.33s-15.61,1.54-19.33,11.31-.56,18.35,6.94,21.2S424.45,53.15,428.16,43.43Z"/><path class="cls-1" d="M439.13,48.22c5.48-9.6,17.21-12.58,25.83-7.68s12.09,16.56,6.62,26.16-17.12,12.64-25.88,7.65S433.66,57.83,439.13,48.22Zm28.45,16.2c5.2-9.13,3.41-18.14-3.61-22.13s-15.66-.88-20.83,8.21-3.36,18,3.61,22S462.42,73.47,467.58,64.42Z"/><path class="cls-1" d="M518.7,80.68l-1.27-1c-2.73-2.14-4.64-1-6.28,1.06L491.21,106l-1.27-1,1.34-41.18L474.44,85.18c-1.72,2.17-2,4.17,1,6.52l1.27,1-.63.81-11.54-9.1.64-.8,1.36,1.07c2.47,2,4.46,1.17,6.08-.87l16.87-21.41c1.34-1.7,1.59-3.51-.87-5.45l-1.49-1.18.63-.8,7.62,6-1.29,37.7,15.34-19.45c1.74-2.21,2-4.29-.85-6.53l-1.11-.88.64-.81,11.23,8.86Z"/><path class="cls-1" d="M537.08,127.11c9.54-7,21.23-5.32,27.41,3.12,3.23,4.42,4.41,8.33,4.47,11.17l-7.79,5.69-.67-.91c4.78-3.57,6.3-9.38,2-15.33-4.86-6.65-13.83-8.08-22-2.1-7.66,5.6-9.43,14.75-4.63,21.31a11.74,11.74,0,0,0,14.4,4.18l.67.92c-5.65,2.92-14,3.25-19.21-3.88C526,143.58,528.29,133.54,537.08,127.11Z"/><path class="cls-1" d="M559.48,156.81c9.74-5.23,21.27-1.52,26,7.21s1.45,20.45-8.29,25.69-21.22,1.61-26-7.27S549.74,162,559.48,156.81ZM575,185.65c9.26-5,12.53-13.56,8.7-20.68s-12.8-9.05-22-4.1-12.44,13.51-8.64,20.57S565.8,190.57,575,185.65Z"/><path class="cls-1" d="M577.77,247.09,572.65,232l1-.33.75,2.2c.63,1.85,1.84,3.39,5.12,2.27.72-.24,1.37-.52,2-.8L606.06,224l-36.29-.5-.68-2,28.09-22.31-25.78,6a18.47,18.47,0,0,0-2.21.58c-3.23,1.09-3.34,3-2.45,5.58l.43,1.29-1,.33-4.57-13.45,1-.33.28.82c1,3,2.73,4,6.77,3.08l23.83-5.34c.69-.18,1.52-.41,1.88-.53,2.83-1,3.13-2.6,2.38-4.81l-.51-1.49,1-.33,3.31,9.75L575,221.53l33.89.51,3.33,9.81-1,.33-.43-1.28c-.82-2.42-2.13-3.57-4.7-2.7a26,26,0,0,0-2.6,1.11l-21.5,10c-4.16,1.93-4.46,3.92-3.64,6.33l.39,1.13Z"/><path class="cls-1" d="M578.72,251.52c.61,3.09,2.42,3.28,4.6,2.84l27.1-5.42c2.18-.44,3.67-1.29,3.05-4.37l-.36-1.81,1-.2,3,14.72-1,.2-.36-1.8c-.61-3-2.32-3.3-4.5-2.86l-27.1,5.42c-2.18.44-3.77,1.36-3.16,4.39l.36,1.81-1,.2-2.94-14.72,1-.2Z"/><path class="cls-1" d="M621.23,305.56l-.14-1.62c-.28-3.45-2.4-4.09-5.05-3.87L584,302.74l-.13-1.62,31-27.11-27.12,2.25c-2.75.23-4.4,1.4-4.08,5.19l.13,1.62-1,.08-1.22-14.64,1-.08.15,1.73c.26,3.13,2.19,4.06,4.78,3.84l27.17-2.26c2.16-.18,3.65-1.23,3.39-4.37l-.16-1.89,1-.08.8,9.67-28.45,24.78L616,297.79c2.81-.23,4.5-1.46,4.2-5.08L620,291.3l1-.08,1.19,14.26Z"/><path class="cls-1" d="M602.87,311.6c12.65.78,19.22,11.39,18.58,21.88-.36,5.84-1.55,9.25-2.79,11.72l-10.33-.63.08-1.19c4.49.16,10.53-1.75,11.08-10.67.53-8.71-4.94-16-15.32-16.63-11.31-.7-18.79,6.17-19.34,15.1-.3,4.86,1.38,7.52,4.74,7.73l4.76.29c2.54.15,3.84-.74,4.06-4.31l.18-2.82,1.24.08-.93,15.09-1.24-.07c.2-3.3-.35-4.1-3-4.26l-7.19-.44-.22,3.51-.81-.05c-2-3.22-4.11-8.18-3.65-15.7C583.46,319,592,310.93,602.87,311.6Z"/><path class="cls-1" d="M581.29,364.8l9.81,1.13-.29,1.21c-6.82-.35-11.59,3-12.88,8.4-1.12,4.69.93,8.46,5.09,9.46,3.9.94,6.3-1.39,8.68-4.83l2.63-3.77c3.13-4.44,6.59-7,11.7-5.79,6,1.43,9,7.95,7.27,15a22,22,0,0,1-3.93,8.53L600.56,392l.29-1.21c5.91,1.41,9.63-1.82,10.74-6.46,1.32-5.48-1.23-9.26-5-10.16-3.54-.84-5.91.93-8.27,4.26l-2.62,3.72c-3.54,5-6.82,7.79-12.09,6.53-6-1.43-9.17-7.77-7.58-14.41A19.42,19.42,0,0,1,581.29,364.8Z"/><path class="cls-1" d="M590.5,397.51c10.33,3.94,15.08,15.08,11.55,24.35s-14.51,14.48-24.84,10.55-15.11-15-11.53-24.4C569.21,398.74,580.17,393.58,590.5,397.51ZM578.85,428.1c9.83,3.75,18.45.59,21.32-7s-1.54-15.61-11.31-19.33-18.35-.55-21.2,6.94S569.13,424.4,578.85,428.1Z"/><path class="cls-1" d="M574,439.11c9.61,5.47,12.59,17.21,7.68,25.83s-16.55,12.09-26.16,6.61-12.64-17.11-7.65-25.87S564.44,433.64,574,439.11Zm-16.2,28.44C567,472.76,576,471,580,464s.87-15.66-8.22-20.84-18-3.36-22,3.61S548.8,462.4,557.84,467.55Z"/><path class="cls-1" d="M541.61,518.67l1-1.28c2.15-2.72,1-4.63-1-6.28l-25.29-19.93,1-1.28,41.19,1.34L537.1,474.39c-2.17-1.71-4.17-2-6.52,1l-1,1.28-.81-.64,9.1-11.54.81.64-1.08,1.36c-1.94,2.47-1.17,4.46.88,6.07l21.41,16.88c1.7,1.34,3.51,1.59,5.45-.88l1.18-1.49.81.64-6,7.62-37.71-1.28,19.46,15.33c2.21,1.75,4.29,2,6.54-.85l.87-1.11.81.64-8.86,11.24Z"/><path class="cls-1" d="M495.19,537.05c7,9.54,5.31,21.22-3.13,27.4-4.42,3.23-8.32,4.41-11.17,4.47l-5.69-7.78.92-.68c3.56,4.78,9.38,6.31,15.32,1.95,6.65-4.86,8.08-13.83,2.1-22-5.6-7.66-14.75-9.42-21.31-4.62a11.74,11.74,0,0,0-4.17,14.4l-.92.67c-2.93-5.65-3.26-14,3.87-19.22C478.71,526,488.75,528.26,495.19,537.05Z"/><path class="cls-1" d="M465.49,559.45c5.23,9.74,1.52,21.27-7.22,26s-20.44,1.45-25.68-8.29-1.61-21.22,7.27-26C448.59,546.44,460.26,549.71,465.49,559.45Zm-28.84,15.49c5,9.26,13.56,12.53,20.67,8.7s9.06-12.8,4.11-22S447.92,549.2,440.86,553,431.73,565.77,436.65,574.94Z"/><path class="cls-1" d="M375.23,577.76l15.08-5.13.34,1-2.21.75c-1.85.63-3.38,1.83-2.27,5.12.25.72.52,1.37.8,2L398.29,606l.49-36.28,2-.68,22.31,28.08-6-25.78a18,18,0,0,0-.58-2.21c-1.1-3.23-3-3.34-5.58-2.45l-1.29.43-.33-1,13.45-4.57.33,1-.83.27c-3,1-4,2.74-3.07,6.78l5.35,23.82c.17.69.4,1.52.52,1.88,1,2.83,2.61,3.13,4.81,2.38l1.49-.51.33,1-9.75,3.31L400.78,575l-.5,33.89-9.8,3.33-.33-1,1.28-.43c2.41-.82,3.57-2.13,2.7-4.7a26.13,26.13,0,0,0-1.12-2.6L383,582c-1.93-4.15-3.92-4.45-6.33-3.63l-1.13.39Z"/><path class="cls-1" d="M370.76,578.71c-3.09.62-3.28,2.42-2.84,4.6l5.42,27.11c.44,2.18,1.29,3.67,4.37,3.05l1.81-.36.2,1L365,617.06l-.2-1,1.8-.36c3-.61,3.3-2.32,2.86-4.5L364,584.09c-.44-2.18-1.36-3.76-4.39-3.16l-1.81.37-.2-1,14.72-2.95.2,1Z"/><path class="cls-1" d="M316.72,621.23l1.62-.14c3.45-.29,4.09-2.41,3.87-5.05L319.54,584l1.62-.14,27.12,31L346,587.73c-.23-2.76-1.4-4.4-5.19-4.09l-1.62.14-.08-1,14.64-1.22.08,1-1.73.14c-3.13.26-4.06,2.19-3.84,4.78l2.26,27.17c.18,2.16,1.23,3.65,4.37,3.39l1.89-.15.08,1-9.67.81-24.78-28.45L324.49,616c.23,2.81,1.46,4.51,5.08,4.2L331,620l.08,1-14.26,1.19Z"/><path class="cls-1" d="M310.69,602.86c-.78,12.66-11.39,19.23-21.88,18.59-5.84-.36-9.24-1.54-11.72-2.78l.63-10.33,1.19.07c-.16,4.5,1.75,10.53,10.67,11.08,8.71.53,16-4.94,16.63-15.33.69-11.3-6.18-18.78-15.1-19.33-4.87-.29-7.53,1.39-7.73,4.74l-.29,4.76c-.16,2.55.74,3.85,4.31,4.07l2.81.17-.07,1.24-15.1-.92.08-1.24c3.3.2,4.09-.35,4.26-3l.44-7.2-3.52-.21.05-.81c3.22-2,8.18-4.12,15.7-3.66C303.3,583.46,311.35,592,310.69,602.86Z"/><path class="cls-1" d="M257.5,581.3l-1.12,9.81-1.21-.29c.35-6.82-3-11.59-8.4-12.87-4.69-1.12-8.47.93-9.47,5.09-.93,3.9,1.39,6.3,4.84,8.68l3.77,2.63c4.44,3.13,7,6.58,5.79,11.7-1.43,6-7.94,9-15,7.28a22,22,0,0,1-8.53-3.94l2.11-8.8,1.21.29c-1.41,5.9,1.82,9.63,6.46,10.74,5.48,1.31,9.27-1.24,10.16-5,.85-3.54-.93-5.91-4.26-8.27l-3.72-2.62c-5-3.53-7.79-6.82-6.53-12.09,1.42-6,7.76-9.18,14.41-7.59A19.46,19.46,0,0,1,257.5,581.3Z"/><path class="cls-1" d="M224.76,590.51c-3.93,10.33-15.07,15.07-24.34,11.54s-14.48-14.5-10.55-24.83,15-15.12,24.4-11.53C223.53,569.22,228.7,580.18,224.76,590.51Zm-30.58-11.65c-3.75,9.82-.59,18.45,6.95,21.32s15.61-1.54,19.33-11.31.55-18.35-7-21.2S197.88,569.13,194.18,578.86Z"/><path class="cls-1" d="M183.19,574.07c-5.47,9.61-17.21,12.59-25.83,7.68s-12.1-16.55-6.62-26.16,17.12-12.65,25.88-7.66S188.66,564.46,183.19,574.07Zm-28.45-16.2c-5.2,9.14-3.41,18.14,3.61,22.14s15.66.87,20.84-8.22,3.35-18-3.62-22S159.89,548.82,154.74,557.87Z"/><path class="cls-1" d="M103.61,541.64l1.28,1c2.73,2.15,4.64,1,6.28-1l19.92-25.29,1.28,1-1.32,41.18,16.83-21.38c1.71-2.17,2-4.17-1-6.51l-1.28-1,.64-.81,11.53,9.09-.63.81-1.37-1.07c-2.46-2-4.46-1.17-6.07.87L132.83,559.9c-1.34,1.7-1.59,3.5.88,5.45l1.49,1.17-.64.81-7.62-6,1.28-37.7-15.33,19.45c-1.74,2.22-2,4.29.86,6.54l1.1.87-.63.81L103,542.44Z"/><path class="cls-1" d="M85.22,495.2c-9.54,7-21.22,5.32-27.4-3.12-3.23-4.42-4.41-8.33-4.47-11.17l7.78-5.69.68.92c-4.78,3.56-6.31,9.37-2,15.32,4.87,6.65,13.84,8.08,22,2.1,7.65-5.6,9.42-14.75,4.62-21.31a11.76,11.76,0,0,0-14.4-4.18l-.67-.91c5.65-2.93,14-3.26,19.22,3.87C96.27,478.73,94,488.77,85.22,495.2Z"/><path class="cls-1" d="M62.82,465.51c-9.74,5.24-21.27,1.53-26-7.21s-1.45-20.45,8.29-25.68,21.22-1.62,26,7.26S72.56,460.28,62.82,465.51Zm-15.5-28.83c-9.26,5-12.53,13.56-8.7,20.67s12.81,9.06,22,4.11,12.43-13.52,8.63-20.58S56.49,431.75,47.32,436.68Z"/><path class="cls-1" d="M44.52,375.27l5.12,15.09-1,.33-.75-2.21c-.63-1.84-1.84-3.38-5.12-2.26-.72.24-1.37.52-2,.8L16.23,398.34l36.29.49.68,2L25.12,423.14l25.78-6a17.88,17.88,0,0,0,2.2-.57c3.24-1.1,3.35-3,2.46-5.59l-.44-1.28,1-.33,4.57,13.44-1,.33-.28-.82c-1-3-2.73-4-6.77-3.08l-23.83,5.35c-.68.18-1.52.41-1.88.53-2.82,1-3.12,2.6-2.37,4.81l.51,1.49-1,.33L20.78,422,47.3,400.83l-33.88-.51-3.33-9.8,1-.33.44,1.29c.82,2.41,2.13,3.57,4.69,2.69a26,26,0,0,0,2.6-1.11l21.5-10c4.16-1.92,4.45-3.91,3.63-6.33l-.38-1.13Z"/><path class="cls-1" d="M43.55,370.81c-.61-3.09-2.42-3.28-4.6-2.84l-27.1,5.43c-2.18.44-3.67,1.29-3,4.37l.36,1.81-1,.2L5.2,365.06l1-.2.36,1.8c.61,3,2.32,3.3,4.5,2.86l27.1-5.43c2.18-.44,3.77-1.36,3.16-4.39L41,357.89l1-.2,3,14.72-1,.2Z"/><path class="cls-1" d="M1,316.78l.13,1.62c.29,3.46,2.41,4.09,5.06,3.87l32.08-2.68.14,1.62-31,27.13,27.11-2.27c2.76-.23,4.4-1.4,4.09-5.18l-.14-1.62,1-.09,1.22,14.64-1,.08-.14-1.72c-.26-3.14-2.19-4.06-4.78-3.85L7.61,350.6c-2.16.19-3.65,1.24-3.39,4.37l.16,1.89-1,.08-.81-9.66L31,322.49,6.3,324.55c-2.81.24-4.5,1.47-4.2,5.08L2.22,331l-1,.08L0,316.86Z"/><path class="cls-1" d="M19.39,310.74C6.73,310,.16,299.36.8,288.87c.36-5.85,1.55-9.25,2.78-11.73l10.34.64L13.84,279c-4.49-.17-10.53,1.74-11.07,10.67-.54,8.71,4.93,16,15.32,16.63,11.31.69,18.78-6.18,19.33-15.11.3-4.87-1.38-7.52-4.74-7.73l-4.76-.29c-2.54-.15-3.84.74-4.06,4.31l-.18,2.82-1.24-.08.92-15.09,1.25.07c-.2,3.3.35,4.1,3,4.26l7.19.44.22-3.52.81,0c2,3.22,4.11,8.18,3.65,15.7C38.79,303.35,30.26,311.41,19.39,310.74Z"/><path class="cls-1" d="M41,257.53l-9.82-1.12.29-1.22c6.82.36,11.59-3,12.87-8.4,1.12-4.69-.93-8.47-5.09-9.46-3.9-.94-6.3,1.39-8.68,4.83l-2.63,3.78c-3.12,4.43-6.58,7-11.7,5.78-5.95-1.42-9-7.94-7.28-15a22,22,0,0,1,3.94-8.54l8.8,2.11-.29,1.21c-5.9-1.41-9.63,1.82-10.74,6.46-1.31,5.49,1.24,9.27,5,10.17,3.53.84,5.9-.93,8.26-4.27l2.62-3.72c3.54-5,6.82-7.79,12.09-6.53,6,1.43,9.18,7.77,7.59,14.41A19.49,19.49,0,0,1,41,257.53Z"/><path class="cls-1" d="M31.73,224.81c-10.34-3.93-15.08-15.08-11.55-24.35S34.68,186,45,189.91s15.12,15,11.53,24.4C53,223.58,42.06,228.75,31.73,224.81Zm11.65-30.6c-9.83-3.74-18.46-.58-21.33,7s1.54,15.6,11.32,19.33,18.35.55,21.2-6.95S53.1,197.92,43.38,194.21Z"/><path class="cls-1" d="M48.17,183.22c-9.61-5.47-12.59-17.21-7.68-25.83s16.55-12.1,26.16-6.63,12.64,17.12,7.66,25.88S57.78,188.69,48.17,183.22Zm16.2-28.45c-9.14-5.2-18.15-3.41-22.14,3.61s-.87,15.66,8.22,20.83,18,3.35,22-3.62S73.41,159.91,64.37,154.77Z"/><path class="cls-1" d="M80.59,103.65l-1,1.28c-2.14,2.73-1,4.64,1.06,6.28l25.28,19.93-1,1.27-41.18-1.32,21.37,16.83c2.17,1.71,4.17,2,6.52-1l1-1.28.81.64-9.09,11.53-.8-.63,1.07-1.36c1.94-2.47,1.17-4.47-.88-6.08L62.33,132.87c-1.7-1.34-3.51-1.59-5.45.88l-1.18,1.49-.81-.63,6-7.62,37.7,1.27L79.14,112.93c-2.21-1.74-4.29-2-6.53.86l-.88,1.1-.8-.63L79.78,103Z"/></g></g></svg>