<svg width="30" height="24" viewBox="0 0 30 24" fill="none" xmlns="http://www.w3.org/2000/svg">
<path d="M25.3963 1.95432C23.4842 1.04975 21.4337 0.383303 19.2899 0.00160119C19.2508 -0.00576553 19.2118 0.0126443 19.1917 0.0494648C18.928 0.533033 18.6359 1.16389 18.4314 1.65974C16.1255 1.30382 13.8315 1.30382 11.5729 1.65974C11.3683 1.15287 11.0656 0.533033 10.8007 0.0494648C10.7806 0.0138728 10.7416 -0.00453702 10.7026 0.00160119C8.55989 0.382083 6.50945 1.04853 4.59617 1.95432C4.57961 1.96168 4.56541 1.97397 4.55599 1.98991C0.66674 7.98061 -0.398688 13.8241 0.123975 19.5951C0.12634 19.6233 0.141712 19.6503 0.162998 19.6675C2.72901 21.6104 5.21463 22.7899 7.6541 23.5717C7.69314 23.5839 7.73451 23.5692 7.75935 23.5361C8.33641 22.7236 8.8508 21.8669 9.29185 20.966C9.31787 20.9132 9.29303 20.8506 9.23983 20.8298C8.42391 20.5107 7.647 20.1216 6.89966 19.6798C6.84055 19.6442 6.83582 19.557 6.8902 19.5153C7.04747 19.3938 7.20477 19.2673 7.35494 19.1397C7.38211 19.1164 7.41997 19.1115 7.45192 19.1262C12.3616 21.4373 17.6769 21.4373 22.5287 19.1262C22.5606 19.1102 22.5985 19.1152 22.6268 19.1385C22.7771 19.2661 22.9343 19.3938 23.0928 19.5153C23.1472 19.557 23.1436 19.6442 23.0845 19.6798C22.3372 20.1302 21.5602 20.5107 20.7431 20.8285C20.6899 20.8494 20.6663 20.9132 20.6923 20.966C21.1428 21.8656 21.6572 22.7223 22.2236 23.5348C22.2473 23.5692 22.2898 23.5839 22.3289 23.5717C24.7802 22.7899 27.2658 21.6104 29.8318 19.6675C29.8543 19.6503 29.8685 19.6245 29.8708 19.5963C30.4964 12.9244 28.8231 7.12884 25.4353 1.99113C25.427 1.97397 25.4128 1.96168 25.3963 1.95432ZM10.025 16.0811C8.54687 16.0811 7.32892 14.682 7.32892 12.9637C7.32892 11.2454 8.52325 9.84621 10.025 9.84621C11.5386 9.84621 12.7448 11.2576 12.7211 12.9637C12.7211 14.682 11.5268 16.0811 10.025 16.0811ZM19.9934 16.0811C18.5153 16.0811 17.2974 14.682 17.2974 12.9637C17.2974 11.2454 18.4917 9.84621 19.9934 9.84621C21.507 9.84621 22.7132 11.2576 22.6896 12.9637C22.6896 14.682 21.507 16.0811 19.9934 16.0811Z" fill="white"/>
</svg>
