<svg width="24" height="24" viewBox="0 0 24 24" fill="none" xmlns="http://www.w3.org/2000/svg">
<path d="M12 0C8.74101 0 8.33234 0.0135815 7.0524 0.0709257C5.77514 0.128165 4.90283 0.327465 4.13952 0.618819C3.35041 0.920068 2.6812 1.32316 2.0141 1.97848C1.34696 2.6338 0.936617 3.29125 0.629984 4.06642C0.333319 4.81621 0.130505 5.67311 0.0721656 6.9278C0.0137901 8.18512 0 8.58657 0 11.788C0 14.9894 0.0137901 15.3908 0.0721656 16.6482C0.130505 17.9029 0.333319 18.7598 0.629984 19.5095C0.936653 20.2847 1.347 20.9421 2.0141 21.5975C2.68124 22.2528 3.35041 22.6559 4.13952 22.9571C4.90283 23.2485 5.77514 23.4478 7.0524 23.505C8.33234 23.5624 8.74101 23.576 12 23.576C15.259 23.576 15.6677 23.5624 16.9476 23.505C18.2249 23.4478 19.0972 23.2485 19.8604 22.9571C20.6495 22.6559 21.3188 22.2528 21.9859 21.5975C22.653 20.9421 23.0634 20.2847 23.3701 19.5095C23.6666 18.7598 23.8695 17.9029 23.9278 16.6482C23.9862 15.3908 24 14.9894 24 11.788C24 8.58657 23.9862 8.18512 23.9278 6.9278C23.8695 5.67311 23.6666 4.81621 23.3701 4.06642C23.0634 3.29125 22.653 2.6338 21.9859 1.97848C21.3188 1.32316 20.6495 0.920068 19.8604 0.618819C19.0972 0.327465 18.2249 0.128165 16.9476 0.0709257C15.6677 0.0135815 15.259 0 12 0ZM12 2.12394C15.2041 2.12394 15.5837 2.13598 16.849 2.19269C18.019 2.24509 18.6544 2.43713 19.0772 2.59856C19.6374 2.81243 20.0371 3.06784 20.457 3.48034C20.877 3.89284 21.137 4.28555 21.3547 4.83575C21.519 5.25113 21.7145 5.87532 21.7679 7.02462C21.8256 8.26763 21.8379 8.64047 21.8379 11.788C21.8379 14.9355 21.8256 15.3083 21.7679 16.5513C21.7145 17.7007 21.519 18.3248 21.3547 18.7402C21.137 19.2904 20.877 19.6831 20.457 20.0956C20.0371 20.5081 19.6374 20.7635 19.0773 20.9774C18.6544 21.1388 18.019 21.3309 16.849 21.3833C15.5839 21.44 15.2044 21.452 12 21.452C8.79563 21.452 8.41619 21.44 7.15097 21.3832C5.98096 21.3309 5.34558 21.1388 4.92277 20.9774C4.36259 20.7635 3.96286 20.5081 3.54297 20.0956C3.12306 19.6831 2.86301 19.2904 2.6453 18.7402C2.48096 18.3248 2.28551 17.7006 2.23213 16.5513C2.1744 15.3083 2.16215 14.9355 2.16215 11.788C2.16215 8.64047 2.1744 8.26763 2.23213 7.02462C2.28551 5.87528 2.48096 5.25113 2.6453 4.83579C2.86301 4.28551 3.12306 3.89284 3.54294 3.48038C3.96286 3.06784 4.36263 2.81243 4.92273 2.59856C5.34558 2.43713 5.98099 2.24509 7.15097 2.19269C8.41633 2.13598 8.79588 2.12394 12 2.12394" fill="white"/>
<path d="M12.0001 15.7173C9.79089 15.7173 8.00004 13.9581 8.00004 11.788C8.00004 9.61784 9.79089 7.85863 12.0001 7.85863C14.2092 7.85863 16.0001 9.61784 16.0001 11.788C16.0001 13.9581 14.2092 15.7173 12.0001 15.7173ZM12.0001 5.73468C8.59676 5.73468 5.83789 8.44481 5.83789 11.788C5.83789 15.1311 8.59676 17.8412 12.0001 17.8412C15.4033 17.8412 18.1622 15.1311 18.1622 11.788C18.1622 8.44481 15.4033 5.73468 12.0001 5.73468ZM19.8457 5.49552C19.8457 6.27679 19.201 6.91006 18.4057 6.91006C17.6104 6.91006 16.9657 6.27679 16.9657 5.49552C16.9657 4.71428 17.6104 4.08093 18.4057 4.08093C19.201 4.08093 19.8457 4.71428 19.8457 5.49552Z" fill="white"/>
</svg>
