<svg width="30" height="24" viewBox="0 0 30 24" fill="none" xmlns="http://www.w3.org/2000/svg">
<path d="M26.9287 5.86917C26.947 6.12496 26.947 6.38074 26.947 6.63888C26.947 14.5045 20.7556 23.576 9.43449 23.576V23.5712C6.09019 23.576 2.81536 22.6495 0 20.9026C0.486289 20.9592 0.975015 20.9875 1.46496 20.9887C4.23644 20.991 6.9287 20.0917 9.10908 18.4355C6.47532 18.3872 4.16575 16.7264 3.35893 14.3018C4.28154 14.4739 5.23218 14.4385 6.13772 14.1992C3.2663 13.6381 1.20049 11.1982 1.20049 8.36453C1.20049 8.3386 1.20049 8.31385 1.20049 8.28909C2.05606 8.74997 3.01402 9.00576 3.99391 9.03405C1.28946 7.286 0.45582 3.80641 2.08897 1.08591C5.21389 4.80479 9.8245 7.06558 14.7739 7.30486C14.2779 5.23738 14.9555 3.07088 16.5545 1.61752C19.0335 -0.636201 22.9324 -0.520686 25.2626 1.87566C26.6411 1.6128 27.9622 1.12363 29.1712 0.430543C28.7118 1.80847 27.7502 2.97894 26.4656 3.72272C27.6856 3.58363 28.8775 3.26773 30 2.78563C29.1737 3.98322 28.1328 5.02639 26.9287 5.86917Z" fill="white"/>
</svg>
