<svg width="35" height="24" viewBox="0 0 35 24" fill="none" xmlns="http://www.w3.org/2000/svg">
<path d="M33.5543 3.7574C33.3586 3.03147 32.9758 2.36962 32.4441 1.83797C31.9125 1.30633 31.2506 0.923519 30.5247 0.727786C27.8505 5.38039e-07 17.134 0 17.134 0C17.134 0 6.41467 2.6902e-07 3.74612 0.716502C3.01858 0.912691 2.35553 1.29703 1.82369 1.83085C1.29185 2.36466 0.909983 3.02913 0.7165 3.7574C-1.88314e-06 6.42877 0 12.0056 0 12.0056C0 12.0056 -1.88314e-06 17.5825 0.7165 20.2539C0.911713 20.9801 1.29435 21.6422 1.82608 22.1739C2.3578 22.7056 3.01993 23.0883 3.74612 23.2835C6.41749 24 17.134 24 17.134 24C17.134 24 27.8533 24 30.5247 23.2835C31.2506 23.0878 31.9125 22.705 32.4441 22.1733C32.9758 21.6417 33.3586 20.9798 33.5543 20.2539C34.268 17.5825 34.268 12.0056 34.268 12.0056C34.268 12.0056 34.2595 6.42877 33.5543 3.7574Z" fill="white"/>
<path d="M13.7067 17.1454V6.86609L22.6122 12.0057L13.7067 17.1454Z" fill="black"/>
</svg>
